# File created by Blade
# Date/Time:  Tue Apr 07 20:40:51 2015
#---------------------------------------------------------
:version 1.10
:name HOM
:units
  mass 1.0
  length 1.000000
  angle deg
:documentation
     Acclaim Skeleton File
:root
   axis xyz
   order TX TY TZ RX RY RZ
   position 0.000000 0.000000 0.000000
   orientation 0 0 0
:bonedata
   begin
      id 1
      name Spine_dum
      direction 0.000000 1.000000 0.000000
      length 4.885285
      axis 0.0 0.0 0.0 xyz
   end
   begin
      id 2
      name LeftUpLeg_dum
      direction 1.000000 0.000000 0.000000
      length 2.672193
      axis 0.0 0.0 0.0 xyz
   end
   begin
      id 3
      name RightUpLeg_dum
      direction -1.000000 0.000000 0.000000
      length 2.672193
      axis 0.0 0.0 0.0 xyz
   end
   begin
      id 4
      name Spine
      direction 0.000000 1.000000 0.000000
      length 0.000000
      axis 0.0 0.0 0.0 xyz
      dof rx ry rz
   end
   begin
      id 5
      name Spine_dum1
      direction 0.000000 1.000000 0.000000
      length 16.494159
      axis 0.0 0.0 0.0 xyz
   end
   begin
      id 6
      name Spine_dum2
      direction 0.000000 1.000000 0.000000
      length 10.663448
      axis 0.0 0.0 0.0 xyz
   end
   begin
      id 7
      name Spine_dum3
      direction 0.000000 1.000000 0.000000
      length 10.663448
      axis 0.0 0.0 0.0 xyz
   end
   begin
      id 8
      name Head
      direction 0.000000 1.000000 0.000000
      length 4.527550
      axis 0.0 0.0 0.0 xyz
      dof rx ry rz
   end
   begin
      id 9
      name LeftShoulder
      direction 1.000000 0.000000 0.000000
      length 7.531907
      axis 0.0 0.0 -90.0 xyz
      dof rx ry rz
   end
   begin
      id 10
      name LeftArm
      direction 1.000000 0.000000 0.000000
      length 10.229199
      axis 0.0 0.0 -90.0 xyz
      dof rx ry rz
   end
   begin
      id 11
      name LeftForeArm
      direction 1.000000 0.000000 0.000000
      length 8.673495
      axis 0.0 0.0 -90.0 xyz
      dof ry rz rx
   end
   begin
      id 12
      name LeftHand
      direction 0.000000 0.000000 0.000000
      length 0.000000
      axis 0.0 0.0 -90.0 xyz
      dof rx ry rz
   end
   begin
      id 13
      name LeftHand_dum1
      direction 0.000000 0.000000 0.000000
      length 0.000000
      axis 0.0 0.0 -90.0 xyz
   end
   begin
      id 14
      name LeftHand_dum2
      direction 1.000000 0.000000 0.000000
      length 3.937000
      axis 0.0 0.0 -90.0 xyz
   end
   begin
      id 15
      name LeftHandThumb1
      direction 0.000000 0.000000 1.000000
      length 3.937000
      axis 0.0 0.0 -90.0 xyz
      dof rx rz ry
   end
   begin
      id 16
      name RightShoulder
      direction -1.000000 0.000000 0.000000
      length 7.531907
      axis 0.0 0.0 90.0 xyz
      dof rx ry rz
   end
   begin
      id 17
      name RightArm
      direction -1.000000 0.000000 0.000000
      length 10.229199
      axis 0.0 0.0 90.0 xyz
      dof rx ry rz
   end
   begin
      id 18
      name RightForeArm
      direction -1.000000 0.000000 0.000000
      length 8.673495
      axis 0.0 0.0 90.0 xyz
      dof ry rz rx
   end
   begin
      id 19
      name RightHand
      direction 0.000000 0.000000 0.000000
      length 0.000000
      axis 0.0 0.0 90.0 xyz
      dof rx ry rz
   end
   begin
      id 20
      name RightHand_dum1
      direction 0.000000 0.000000 0.000000
      length 0.000000
      axis 0.0 0.0 90.0 xyz
   end
   begin
      id 21
      name RightHand_dum2
      direction -1.000000 0.000000 0.000000
      length 3.937000
      axis 0.0 0.0 90.0 xyz
   end
   begin
      id 22
      name RightHandThumb1
      direction 0.000000 0.000000 1.000000
      length 3.937000
      axis 0.0 0.0 90.0 xyz
      dof rx rz ry
   end
   begin
      id 23
      name LeftUpLeg
      direction 0.000000 -1.000000 0.000000
      length 16.263388
      axis 0.0 0.0 0.0 xyz
      dof rx ry rz
   end
   begin
      id 24
      name LeftLeg
      direction 0.000000 -1.000000 0.000000
      length 14.328163
      axis 0.0 0.0 0.0 xyz
      dof rx ry rz
   end
   begin
      id 25
      name LeftFoot
      direction 0.000000 -0.258819 0.965926
      length 5.031290
      axis 15.0 0.0 0.0 xyz
      dof rx ry rz
   end
   begin
      id 26
      name LeftToeBase
      direction 0.000000 0.000000 1.000000
      length 2.952750
      axis 0.0 0.0 0.0 xyz
      dof rx ry rz
   end
   begin
      id 27
      name RightUpLeg
      direction 0.000000 -1.000000 0.000000
      length 16.263388
      axis 0.0 0.0 0.0 xyz
      dof rx ry rz
   end
   begin
      id 28
      name RightLeg
      direction 0.000000 -1.000000 0.000000
      length 14.328163
      axis 0.0 0.0 0.0 xyz
      dof rx ry rz
   end
   begin
      id 29
      name RightFoot
      direction 0.000000 -0.258819 0.965926
      length 5.031290
      axis 15.0 0.0 0.0 xyz
      dof rx ry rz
   end
   begin
      id 30
      name RightToeBase
      direction 0.000000 0.000000 1.000000
      length 2.952750
      axis 0.0 0.0 0.0 xyz
      dof rx ry rz
   end
:hierarchy
   begin
      root Spine_dum LeftUpLeg_dum RightUpLeg_dum
      Spine_dum Spine
      LeftUpLeg_dum LeftUpLeg
      RightUpLeg_dum RightUpLeg
      Spine Spine_dum1 Spine_dum2 Spine_dum3
      Spine_dum1 Head
      Spine_dum2 LeftShoulder
      Spine_dum3 RightShoulder
      LeftShoulder LeftArm
      LeftArm LeftForeArm
      LeftForeArm LeftHand
      LeftHand LeftHand_dum1 LeftHand_dum2
      LeftHand_dum1 LeftHandThumb1
      RightShoulder RightArm
      RightArm RightForeArm
      RightForeArm RightHand
      RightHand RightHand_dum1 RightHand_dum2
      RightHand_dum1 RightHandThumb1
      LeftUpLeg LeftLeg
      LeftLeg LeftFoot
      LeftFoot LeftToeBase
      RightUpLeg RightLeg
      RightLeg RightFoot
      RightFoot RightToeBase
   end

# File created by Blade
# Date/Time:  Tue Apr 07 20:41:02 2015
# Frame Rate: 120.000 fps
#------------------------------------------------------
:FULLY-SPECIFIED
:DEGREES
57
root 1.051812 32.739870 1.415969 8.047111 3.317599 0.516532
Spine -11.700092 -8.062530 -1.799740
Head 17.631840 -1.892672 -0.706992
LeftShoulder -19.245399 40.693714 21.714057
LeftArm 54.703184 -53.148073 -52.070379
LeftForeArm 5.052703 -0.000000 -2.451358
LeftHand 4.771715 0.000000 4.438020
LeftHandThumb1 -26.253704 0.000000 33.147579
RightShoulder -6.661910 4.815026 -31.609248
RightArm 12.655156 14.023947 40.016437
RightForeArm -10.733644 -0.000000 0.763074
RightHand 4.705218 -0.000000 2.458399
RightHandThumb1 -24.326973 -0.000000 -32.862282
LeftUpLeg -1.139168 -2.663505 -1.172893
LeftLeg -5.193494 -0.000000 0.000000
LeftFoot -6.245303 10.520924 -15.469275
LeftToeBase -1.973171 -0.000000 0.000000
RightUpLeg -0.796237 -2.368890 0.027821
RightLeg -4.536784 -0.000000 0.000000
RightFoot -7.380270 -7.517162 5.909732
RightToeBase 1.602691 -0.000000 -0.000000
58
root 1.047539 32.740493 1.414241 8.047688 3.313876 0.518408
Spine -11.704554 -8.054514 -1.811626
Head 17.631183 -1.877097 -0.700591
LeftShoulder -19.251653 40.707039 21.726542
LeftArm 54.704829 -53.164589 -52.072727
LeftForeArm 5.088851 0.000000 -2.436538
LeftHand 4.820186 -0.000000 4.422244
LeftHandThumb1 -26.253704 0.000000 33.147579
RightShoulder -6.647221 4.826631 -31.611799
RightArm 12.628374 14.032628 40.007749
RightForeArm -10.731475 -0.000000 0.779922
RightHand 4.709011 -0.000000 2.468619
RightHandThumb1 -24.326973 -0.000000 -32.862282
LeftUpLeg -1.147930 -2.637997 -1.171272
LeftLeg -5.181930 -0.000000 0.000000
LeftFoot -6.239073 10.508210 -15.470693
LeftToeBase -1.999788 -0.000000 0.000000
RightUpLeg -0.791659 -2.370222 0.029975
RightLeg -4.554410 -0.000000 0.000000
RightFoot -7.360721 -7.498131 5.919725
RightToeBase 1.589417 -0.000000 -0.000000
59
root 1.044196 32.740744 1.411829 8.048003 3.301713 0.528620
Spine -11.704840 -8.035464 -1.829122
Head 17.614455 -1.869227 -0.710558
LeftShoulder -19.248005 40.691246 21.744530
LeftArm 54.700600 -53.173467 -52.070382
LeftForeArm 5.032275 0.000000 -2.456303
LeftHand 4.848517 -0.000000 4.593540
LeftHandThumb1 -26.253704 0.000000 33.147579
RightShoulder -6.645082 4.852080 -31.622474
RightArm 12.606060 14.033650 40.000834
RightForeArm -10.750668 -0.000000 0.787012
RightHand 4.740826 0.000000 2.435600
RightHandThumb1 -24.326973 -0.000000 -32.862282
LeftUpLeg -1.153111 -2.624369 -1.178054
LeftLeg -5.179061 -0.000000 0.000000
LeftFoot -6.230921 10.505594 -15.471931
LeftToeBase -2.012629 -0.000000 0.000000
RightUpLeg -0.787925 -2.349562 0.021344
RightLeg -4.569995 -0.000000 0.000000
RightFoot -7.350500 -7.499407 5.922019
RightToeBase 1.592113 -0.000000 -0.000000
60
root 1.041275 32.741178 1.410193 8.041434 3.301264 0.534795
Spine -11.698912 -8.027431 -1.840318
Head 17.601054 -1.857188 -0.716115
LeftShoulder -19.244555 40.687533 21.746899
LeftArm 54.686517 -53.190244 -52.039939
LeftForeArm 5.036152 -0.000000 -2.465761
LeftHand 4.831271 -0.000000 4.765742
LeftHandThumb1 -26.253704 0.000000 33.147579
RightShoulder -6.643932 4.856844 -31.633016
RightArm 12.601911 14.051102 40.003357
RightForeArm -10.774545 -0.000000 0.798270
RightHand 4.700182 0.000000 2.436801
RightHandThumb1 -24.326973 -0.000000 -32.862282
LeftUpLeg -1.148233 -2.635020 -1.181814
LeftLeg -5.184412 -0.000000 0.000000
LeftFoot -6.222646 10.540892 -15.449586
LeftToeBase -1.992111 -0.000000 0.000000
RightUpLeg -0.780323 -2.382178 0.018513
RightLeg -4.578468 -0.000000 0.000000
RightFoot -7.350994 -7.453068 5.950932
RightToeBase 1.604563 -0.000000 -0.000000
61
root 1.038330 32.741532 1.408295 8.044933 3.297774 0.539142
Spine -11.704762 -8.016326 -1.849009
Head 17.588304 -1.847506 -0.725425
LeftShoulder -19.250602 40.693918 21.755366
LeftArm 54.692987 -53.210747 -52.038211
LeftForeArm 5.003389 0.000000 -2.462764
LeftHand 4.830522 0.000000 4.581851
LeftHandThumb1 -26.253704 0.000000 33.147579
RightShoulder -6.646682 4.865094 -31.659378
RightArm 12.600010 14.067361 40.023800
RightForeArm -10.779562 -0.000000 0.784268
RightHand 4.849336 -0.000000 2.264358
RightHandThumb1 -24.326973 -0.000000 -32.862282
LeftUpLeg -1.151479 -2.643792 -1.182023
LeftLeg -5.195094 -0.000000 0.000000
LeftFoot -6.213161 10.563326 -15.436206
LeftToeBase -1.947642 -0.000000 0.000000
RightUpLeg -0.782251 -2.399287 0.016664
RightLeg -4.587777 -0.000000 0.000000
RightFoot -7.342506 -7.413313 5.965905
RightToeBase 1.596577 -0.000000 -0.000000
62
root 1.035007 32.741962 1.405486 8.050673 3.290513 0.542335
Spine -11.710659 -7.997113 -1.860298
Head 17.573276 -1.842411 -0.728157
LeftShoulder -19.228520 40.668541 21.783834
LeftArm 54.636908 -53.224833 -51.977857
LeftForeArm 5.066971 0.000000 -2.450449
LeftHand 4.790692 -0.000000 4.348375
LeftHandThumb1 -26.253704 0.000000 33.147579
RightShoulder -6.657224 4.855893 -31.663262
RightArm 12.627653 14.078326 40.020632
RightForeArm -10.785105 -0.000000 0.768684
RightHand 4.869273 0.000000 2.198582
RightHandThumb1 -24.326973 -0.000000 -32.862282
LeftUpLeg -1.165901 -2.625647 -1.181369
LeftLeg -5.189790 -0.000000 0.000000
LeftFoot -6.198213 10.561106 -15.421333
LeftToeBase -1.967540 -0.000000 0.000000
RightUpLeg -0.790605 -2.402709 0.018778
RightLeg -4.595579 -0.000000 0.000000
RightFoot -7.334236 -7.405835 5.960613
RightToeBase 1.621418 -0.000000 -0.000000
63
root 1.032054 32.742062 1.403613 8.054761 3.287721 0.553751
Spine -11.717777 -7.998887 -1.876902
Head 17.559013 -1.822656 -0.731482
LeftShoulder -19.233576 40.661449 21.787501
LeftArm 54.599497 -53.239184 -51.916248
LeftForeArm 5.094408 0.000000 -2.460253
LeftHand 4.769424 -0.000000 4.369829
LeftHandThumb1 -26.253704 0.000000 33.147579
RightShoulder -6.640381 4.860630 -31.669274
RightArm 12.623326 14.085121 40.007827
RightForeArm -10.781913 -0.000000 0.784427
RightHand 4.805902 -0.000000 2.199761
RightHandThumb1 -24.326973 -0.000000 -32.862282
LeftUpLeg -1.175139 -2.605168 -1.189802
LeftLeg -5.187750 -0.000000 0.000000
LeftFoot -6.192364 10.554783 -15.412992
LeftToeBase -1.947309 -0.000000 0.000000
RightUpLeg -0.790326 -2.395001 0.009087
RightLeg -4.608619 -0.000000 0.000000
RightFoot -7.335485 -7.396561 5.986662
RightToeBase 1.641679 -0.000000 -0.000000
64
root 1.029525 32.742409 1.401513 8.052441 3.286490 0.563366
Spine -11.715500 -7.987615 -1.895176
Head 17.539581 -1.802928 -0.739840
LeftShoulder -19.226616 40.657379 21.811892
LeftArm 54.598315 -53.262515 -51.911379
LeftForeArm 5.175441 0.000000 -2.458502
LeftHand 4.768048 0.000000 4.370363
LeftHandThumb1 -26.253704 0.000000 33.147579
RightShoulder -6.633997 4.890679 -31.681689
RightArm 12.598934 14.062689 39.988826
RightForeArm -10.800091 -0.000000 0.784077
RightHand 4.825850 0.000000 2.210207
RightHandThumb1 -24.326973 -0.000000 -32.862282
LeftUpLeg -1.178978 -2.596208 -1.196001
LeftLeg -5.187205 -0.000000 0.000000
LeftFoot -6.171726 10.551553 -15.406222
LeftToeBase -1.976262 -0.000000 0.000000
RightUpLeg -0.785889 -2.404735 0.003039
RightLeg -4.619871 -0.000000 0.000000
RightFoot -7.329296 -7.382387 5.979927
RightToeBase 1.632510 -0.000000 -0.000000
65
root 1.026401 32.742658 1.399366 8.054197 3.290187 0.567857
Spine -11.718715 -7.989104 -1.903959
Head 17.522864 -1.797799 -0.753492
LeftShoulder -19.217007 40.636331 21.828799
LeftArm 54.558400 -53.282101 -51.850549
LeftForeArm 5.200713 -0.000000 -2.485013
LeftHand 4.770020 -0.000000 4.386421
LeftHandThumb1 -26.253704 0.000000 33.147579
RightShoulder -6.632728 4.885266 -31.687918
RightArm 12.620878 14.072899 39.980713
RightForeArm -10.825093 -0.000000 0.798056
RightHand 4.683780 -0.000000 2.269147
RightHandThumb1 -24.326973 -0.000000 -32.862282
LeftUpLeg -1.187321 -2.590975 -1.197485
LeftLeg -5.180180 -0.000000 0.000000
LeftFoot -6.170542 10.549996 -15.413229
LeftToeBase -1.956588 -0.000000 0.000000
RightUpLeg -0.789172 -2.414900 0.002720
RightLeg -4.623788 -0.000000 0.000000
RightFoot -7.322646 -7.361969 6.007438
RightToeBase 1.631148 -0.000000 -0.000000
